HIERARCHY
ROOT Hips
{
  OFFSET 13.6774 106.653 -34.4427
  CHANNELS 6 Xposition Yposition Zposition Zrotation Xrotation Yrotation
  JOINT ToSpine
  {
    OFFSET -2.69724 7.43032 -0.144315
    CHANNELS 3 Zrotation Xrotation Yrotation
    JOINT Spine
    {
      OFFSET -0.0310711 10.7595 1.96963
      CHANNELS 3 Zrotation Xrotation Yrotation
      JOINT Spine1
      {
        OFFSET 19.9056 3.91189 0.764692
        CHANNELS 3 Zrotation Xrotation Yrotation
        JOINT Neck
        {
          OFFSET 25.9749 7.03908 -0.130764
          CHANNELS 3 Zrotation Xrotation Yrotation
          JOINT Head
          {
            OFFSET 9.52751 0.295786 -0.907742
            CHANNELS 3 Zrotation Xrotation Yrotation
            End Site
            {
              OFFSET 16.4037 0.713936 2.7358
            }
          }
        }
        JOINT LeftShoulder
        {
          OFFSET 17.7449 4.33886 11.7777
          CHANNELS 3 Zrotation Xrotation Yrotation
          JOINT LeftArm
          {
            OFFSET 0.911315 1.27913 9.80584
            CHANNELS 3 Zrotation Xrotation Yrotation
            JOINT LeftForeArm
            {
              OFFSET 28.6126 1.18197 -3.53199
              CHANNELS 3 Zrotation Xrotation Yrotation
              JOINT LeftHand
              {
                OFFSET 27.5088 0.0218783 0.327423
                CHANNELS 3 Zrotation Xrotation Yrotation
                End Site
                {
                  OFFSET 18.6038 -0.000155887 0.382096
                }
              }
            }
          }
        }
        JOINT RightShoulder
        {
          OFFSET 17.1009 2.89543 -12.2328
          CHANNELS 3 Zrotation Xrotation Yrotation
          JOINT RightArm
          {
            OFFSET 1.4228 0.178766 -10.211
            CHANNELS 3 Zrotation Xrotation Yrotation
            JOINT RightForeArm
            {
              OFFSET 28.733 1.87905 2.64907
              CHANNELS 3 Zrotation Xrotation Yrotation
              JOINT RightHand
              {
                OFFSET 27.4588 0.290562 -0.101845
                CHANNELS 3 Zrotation Xrotation Yrotation
                End Site
                {
                  OFFSET 17.8396 -0.255518 -0.000602873
                }
              }
            }
          }
        }
      }
    }
  }
  JOINT LeftUpLeg
  {
    OFFSET -5.61296 -2.22332 -10.2353
    CHANNELS 3 Zrotation Xrotation Yrotation
    JOINT LeftLeg
    {
      OFFSET 2.56703 -44.7417 -7.93097
      CHANNELS 3 Zrotation Xrotation Yrotation
      JOINT LeftFoot
      {
        OFFSET 3.16933 -46.5642 -3.96578
        CHANNELS 3 Zrotation Xrotation Yrotation
        JOINT LeftToeBase
        {
          OFFSET 0.346054 -6.02161 12.8035
          CHANNELS 3 Zrotation Xrotation Yrotation
          End Site
          {
            OFFSET 0.134235 -1.35082 5.13018
          }
        }
      }
    }
  }
  JOINT RightUpLeg
  {
    OFFSET -5.7928 -1.72406 10.6446
    CHANNELS 3 Zrotation Xrotation Yrotation
    JOINT RightLeg
    {
      OFFSET -2.57161 -44.7178 -7.85259
      CHANNELS 3 Zrotation Xrotation Yrotation
      JOINT RightFoot
      {
        OFFSET -3.10148 -46.5936 -4.03391
        CHANNELS 3 Zrotation Xrotation Yrotation
        JOINT RightToeBase
        {
          OFFSET -0.0828122 -6.13587 12.8035
          CHANNELS 3 Zrotation Xrotation Yrotation
          End Site
          {
            OFFSET -0.131328 -1.35082 5.13018
          }
        }
      }
    }
  }
}
MOTION
Frames: 10
Frame Time: 0.03333333333333333
0.0000 93.1000 0.0000 67.4643 -14.2360 -23.8549 -70.4820 -0.1861 88.0028 139.1104 50.9179 -64.0976 9.7054 16.9171 -3.9458 -165.6047 33.8315 158.0150 172.0760 72.7276 -143.4988 0.4401 -13.7518 -20.9271 -79.3028 42.8793 -170.2855 7.0269 28.1078 -17.8471 8.7680 -2.2463 -5.9161 -1.3703 0.9542 33.3765 -78.1177 -48.1836 96.2010 11.3694 -6.3020 59.7053 15.5196 0.8377 0.6574 -21.1206 5.8262 87.0309 -13.8658 72.2191 -8.0319 5.9337 -4.7244 -0.4794 -9.4119 -38.7082 14.8138 2.9173 -12.9007 66.9877 150.4708 81.2605 -148.2531 -7.6594 -3.7052 0.1862 10.3570 -27.4327 -14.3097 
0.0000 93.1000 0.0000 65.9715 -15.8707 -28.3572 -70.5475 -0.3061 87.9911 138.2784 51.2670 -63.0974 8.9872 17.1057 -3.9364 -166.3596 34.6972 160.1471 171.7668 72.9361 -143.6933 0.1967 -12.8421 -19.5117 -70.9863 32.3337 -174.3024 12.6720 20.9248 -29.2659 11.0032 -2.1879 -7.9544 -1.3724 1.0733 33.8973 -74.9299 -48.1100 94.2202 10.7913 -7.0145 54.4438 15.5644 0.6022 1.2508 -24.7380 6.0116 90.9852 -11.0867 68.8892 -11.6215 5.4626 -4.9907 -0.9605 -9.0691 -39.8105 14.3439 1.5997 -12.0781 69.7114 138.5187 83.8180 -137.3647 -6.8153 -3.0574 0.5507 10.7590 -25.6652 -13.6352 
0.0000 93.1000 0.0000 63.7243 -19.7856 -31.2385 -70.6423 -2.9131 88.1195 137.1699 52.2796 -60.4582 7.4879 17.9445 -5.2554 -165.2760 34.6627 162.4022 177.2383 72.5624 -149.7545 -2.4383 -11.6836 -21.6411 -67.4228 31.4473 -170.2755 15.7277 17.9362 -37.7284 11.5176 0.9602 -7.7700 -0.9199 1.2616 32.0381 -70.6577 -50.8919 94.4077 5.0352 -3.2582 49.0428 15.4017 -3.1443 2.6741 -29.8096 7.1818 93.0557 -9.5293 65.7068 -16.4781 4.8860 -6.3539 -3.0937 -9.2136 -38.9119 14.6061 -1.9461 -11.5242 69.9291 102.6372 85.7691 -101.1687 -6.5650 -3.5446 0.3905 9.4010 -13.7603 -15.7465 
0.0000 93.1000 0.0000 58.5930 -24.1281 -33.6829 -70.4054 -0.2075 88.4627 135.9460 55.8027 -58.3661 9.1122 18.8314 -4.9640 -164.6630 33.2118 162.9963 -178.3635 72.7866 -154.7085 0.7136 -9.8522 -24.3060 -64.2772 34.5845 -161.0383 14.4598 16.7630 -36.0487 11.8214 -1.9894 -7.7077 -1.2327 3.3681 32.3071 -65.5692 -53.2456 95.8176 -6.0541 7.0478 43.7179 12.8533 0.6280 1.7503 -33.0356 7.8432 90.9951 -9.8039 66.0523 -16.5861 1.2767 -8.8285 -1.0870 -8.2755 -36.1413 19.0877 -8.3070 -6.6700 67.4568 52.3809 85.2175 -48.5823 -6.9730 -6.1155 0.6765 7.0614 -11.3542 -13.8759 
0.0000 93.1000 0.0000 55.5939 -28.0169 -35.8439 -70.2474 -0.7641 88.2257 137.1403 58.4886 -55.9626 10.3774 19.2150 -4.3366 -164.1318 31.8306 163.1193 -174.1576 71.6228 -163.2986 0.5085 -7.8896 -25.6260 -66.6413 39.3122 -150.5312 10.7590 20.5569 -26.1493 12.8226 -1.1877 -5.4446 -1.3291 3.2114 32.5512 -64.0484 -53.1648 98.2553 -8.7291 11.4986 41.5829 12.7368 -0.1690 1.6418 -32.0397 7.1530 84.0001 -15.8784 74.9330 -6.2662 -0.7272 -4.9986 -0.6750 -7.2378 -29.3007 18.5858 -13.0953 -3.2514 67.2111 33.9030 82.6496 -24.5113 -7.1894 -3.7746 0.0267 9.5972 -21.2575 -14.8894 
0.0000 93.1000 0.0000 53.5385 -34.0435 -38.1957 -70.1612 -1.2401 87.9186 139.1196 59.0446 -56.7251 10.9247 20.3767 -3.7987 -166.1076 31.0609 167.4840 -170.8231 70.6449 -166.4851 0.3124 -6.0265 -28.6828 -85.1490 47.5013 -126.4054 4.9761 32.9454 -14.9225 13.0277 -0.5392 -2.4991 -1.6506 3.0699 33.0734 -66.9382 -52.0677 99.3249 -7.1620 11.4422 40.6712 11.7970 -0.6268 2.1164 -30.1870 3.0632 78.2681 -52.6809 83.6249 35.6929 1.3709 1.5530 -0.3496 -6.9896 -28.7808 17.9118 -20.0041 -0.7178 66.9374 32.5262 81.7572 -22.2639 -6.7720 -5.7809 -0.5098 8.7533 -20.0605 -13.7069 
0.0000 93.1000 0.0000 48.4374 -42.4452 -40.7246 -70.2063 -1.0677 87.9533 143.1974 58.6913 -57.4740 11.8118 21.2449 -4.2162 -169.3540 29.8988 170.5541 -166.6358 68.8641 -169.9640 1.0244 -4.2215 -31.9242 -102.2374 47.1961 -101.3918 -0.9187 39.9884 -4.7889 14.7884 -0.9322 -0.9365 -2.0909 1.9350 33.3954 -71.1308 -50.5021 103.3156 -7.9979 11.2734 40.9988 11.5436 0.0501 2.4714 -26.8327 2.0651 74.6135 -154.6275 78.6574 147.5924 5.0420 5.1107 -0.0485 -8.2750 -37.4463 17.9684 -26.0983 5.8837 68.7105 33.3022 82.2014 -22.2516 -7.4256 -7.6402 -0.6064 8.4669 -19.6421 -11.7799 
0.0000 93.1000 0.0000 40.6276 -48.9499 -47.3667 -70.2561 -1.1663 87.9432 147.2013 59.4499 -58.5815 12.0042 23.0212 -3.7432 -171.2924 28.2581 172.3907 -160.4959 67.4539 -175.3498 0.9746 -3.1822 -31.8139 -107.5915 42.4083 -85.3692 -4.8838 38.4061 2.8600 14.3830 -0.2363 0.5278 -1.6503 1.9782 31.7324 -75.8097 -50.4581 107.9142 -7.5392 7.7175 46.7311 11.6251 -0.5582 3.3951 -18.5555 1.4788 74.0725 -167.3400 69.1711 162.8770 6.2165 5.2107 -0.7133 -8.8916 -40.1362 17.0264 -31.9937 12.0488 73.7594 28.5100 80.8996 -14.7752 -8.0114 -8.5896 -0.2117 9.0754 -20.2724 -12.2513 
0.0000 93.1000 0.0000 30.3143 -51.5613 -57.5373 -70.4011 -0.8460 88.1605 148.1883 60.8554 -59.8878 10.6310 24.3403 -2.6576 -175.4028 26.8039 175.2011 -159.6182 65.9732 -175.8650 1.4273 -3.3518 -30.8544 -106.4156 41.0094 -73.3663 -9.2141 37.0281 7.2697 13.9028 -0.7236 0.8871 -1.5180 2.3012 27.9776 -80.5834 -51.5748 115.2662 -3.8585 3.2677 54.6683 9.8891 0.0230 3.4609 -5.6864 0.1280 76.0844 -166.9576 65.9665 160.0464 6.3984 3.4606 -0.3416 -9.1930 -39.7907 15.3269 -37.1971 13.8821 79.0977 19.9270 77.9296 -2.6817 -9.7782 -10.2072 -0.1316 9.9169 -23.1017 -12.5533 
0.0000 93.1000 0.0000 23.8645 -54.0520 -67.9035 -70.4041 -1.5295 88.1771 151.1654 60.9793 -65.7081 8.1159 25.9926 -3.8176 -177.4090 25.8388 176.3565 -159.2832 65.6073 -177.9201 0.8247 -5.2572 -30.8004 -102.4694 40.7940 -67.4617 -11.7376 40.4042 6.9963 12.9419 -0.8558 -0.4668 -1.8593 2.8141 23.1814 -82.5190 -51.1479 124.1558 2.3307 -1.1284 66.5756 9.3015 0.0780 3.7931 1.7350 -0.2254 81.9487 -164.6683 70.2882 154.8930 5.0383 1.6528 0.3337 -8.7652 -40.4229 14.2801 -46.9147 10.7017 85.5835 11.7896 70.0801 10.1091 -11.1217 -10.7503 -0.6541 9.8632 -24.8566 -11.8564 
